<svg fill="#000000" viewBox="0 0 24 24" id="user-3" data-name="Flat Color" xmlns="http://www.w3.org/2000/svg" class="icon flat-color"><g id="SVGRepo_bgCarrier" stroke-width="0"></g><g id="SVGRepo_tracerCarrier" stroke-linecap="round" stroke-linejoin="round"></g><g id="SVGRepo_iconCarrier"><path id="primary" d="M21,20a2,2,0,0,1-2,2H5a2,2,0,0,1-2-2,8,8,0,0,1,1.79-5,2,2,0,0,1,2.67-.39,8.07,8.07,0,0,0,9.07,0,2,2,0,0,1,2.68.39A8,8,0,0,1,21,20Zm-9-6A6,6,0,1,0,6,8,6,6,0,0,0,12,14Z" style="fill: #ffffff;"></path></g></svg>